<svg width="24" height="25" viewBox="0 0 24 25" fill="none" xmlns="http://www.w3.org/2000/svg">
<path opacity="0.1" fill-rule="evenodd" clip-rule="evenodd" d="M0 12.2842C0 5.65676 5.37258 0.28418 12 0.28418C18.6274 0.28418 24 5.65676 24 12.2842C24 18.9116 18.6274 24.2842 12 24.2842C5.37258 24.2842 0 18.9116 0 12.2842Z" fill="white"/>
<path fill-rule="evenodd" clip-rule="evenodd" d="M18.4001 12.2754C18.4001 12.7082 18.356 13.1404 18.2695 13.5618C18.1851 13.9731 18.0601 14.3769 17.8963 14.7629C17.7363 15.1421 17.5379 15.5075 17.306 15.8482C17.0776 16.1869 16.8144 16.5045 16.5253 16.7941C16.2356 17.0825 15.9169 17.3449 15.5784 17.5743C15.2365 17.8046 14.8706 18.0027 14.4912 18.1635C14.1046 18.3264 13.6999 18.4512 13.2889 18.5354C12.867 18.6222 12.4333 18.6665 11.9998 18.6665C11.566 18.6665 11.1323 18.6222 10.711 18.5354C10.2994 18.4512 9.89471 18.3264 9.50844 18.1635C9.12905 18.0027 8.76277 17.8046 8.42088 17.5743C8.08243 17.3449 7.76366 17.0825 7.47458 16.7941C7.1852 16.5045 6.92205 16.1869 6.69329 15.8482C6.46265 15.5075 6.26388 15.142 6.10326 14.7629C5.93948 14.3769 5.81418 13.973 5.72948 13.5618C5.64386 13.1404 5.6001 12.7082 5.6001 12.2754C5.6001 11.8423 5.64384 11.4091 5.72951 10.9887C5.8142 10.5774 5.9395 10.173 6.10328 9.7876C6.2639 9.40814 6.46268 9.04241 6.69332 8.70162C6.92207 8.36272 7.18523 8.04565 7.47461 7.75573C7.76369 7.46737 8.08245 7.20557 8.42091 6.97652C8.76279 6.74526 9.12908 6.54713 9.50846 6.38609C9.89474 6.22284 10.2994 6.09772 10.711 6.0141C11.1323 5.92798 11.5661 5.88428 11.9998 5.88428C12.4333 5.88428 12.8671 5.92798 13.2889 6.0141C13.6999 6.09775 14.1046 6.22287 14.4912 6.38609C14.8706 6.5471 15.2366 6.74526 15.5784 6.97652C15.9169 7.20557 16.2357 7.46737 16.5254 7.75573C16.8144 8.04565 17.0776 8.36272 17.306 8.70162C17.5379 9.04241 17.7363 9.40816 17.8963 9.7876C18.0601 10.173 18.1851 10.5774 18.2695 10.9887C18.356 11.4091 18.4001 11.8423 18.4001 12.2754ZM9.66779 7.33881C8.14363 8.05752 7.00607 9.45993 6.65136 11.1501C6.79545 11.1513 9.07307 11.1801 11.6973 10.4838C10.7513 8.80551 9.74061 7.43589 9.66779 7.33881ZM12.1501 11.3242C9.33589 12.1655 6.63543 12.105 6.53856 12.1013C6.53698 12.1599 6.53417 12.2167 6.53417 12.2754C6.53417 13.6775 7.06389 14.9557 7.93456 15.9222C7.93268 15.9194 9.4284 13.2696 12.3779 12.3172C12.4492 12.2935 12.5217 12.2723 12.5936 12.2517C12.4564 11.9415 12.3067 11.6307 12.1501 11.3242ZM15.6094 8.17922C14.6471 7.33194 13.3836 6.818 11.9998 6.818C11.5557 6.818 11.1247 6.87168 10.7119 6.97091C10.7938 7.08077 11.8204 8.44074 12.7551 10.1546C14.8174 9.38255 15.5959 8.19918 15.6094 8.17922ZM12.9661 13.156C12.9539 13.1601 12.9418 13.1636 12.9299 13.1679C9.70507 14.2905 8.65196 16.5528 8.64057 16.5775C9.56845 17.2981 10.7323 17.7328 11.9998 17.7328C12.7567 17.7328 13.4777 17.5789 14.1337 17.3003C14.0527 16.8234 13.7352 15.152 12.9661 13.156ZM15.054 16.8016C16.2812 15.9746 17.1528 14.6615 17.396 13.1404C17.2835 13.1042 15.7543 12.6208 13.9902 12.9033C14.7071 14.8705 14.9984 16.4727 15.054 16.8016ZM13.1758 10.9678C13.3027 11.2281 13.4255 11.493 13.539 11.7592C13.5793 11.8547 13.6187 11.9484 13.6571 12.042C15.5347 11.806 17.3845 12.203 17.4635 12.2192C17.451 10.9254 16.9876 9.73797 16.2207 8.80834C16.2104 8.82298 15.3338 10.0878 13.1758 10.9678Z" fill="white"/>
</svg>
