<svg width="24" height="25" viewBox="0 0 24 25" fill="none" xmlns="http://www.w3.org/2000/svg">
<path opacity="0.1" fill-rule="evenodd" clip-rule="evenodd" d="M0 12.2842C0 5.65676 5.37258 0.28418 12 0.28418C18.6274 0.28418 24 5.65676 24 12.2842C24 18.9116 18.6274 24.2842 12 24.2842C5.37258 24.2842 0 18.9116 0 12.2842Z" fill="white"/>
<path fill-rule="evenodd" clip-rule="evenodd" d="M12.0007 5.88428C10.2625 5.88428 10.0444 5.89188 9.36174 5.92294C8.6804 5.95414 8.21533 6.06201 7.80839 6.22028C7.38745 6.38375 7.03038 6.60242 6.67464 6.95829C6.31864 7.31403 6.09997 7.6711 5.93597 8.0919C5.7773 8.49897 5.6693 8.96418 5.63863 9.64525C5.6081 10.3279 5.6001 10.5462 5.6001 12.2843C5.6001 14.0225 5.60783 14.24 5.63876 14.9226C5.6701 15.604 5.77797 16.069 5.9361 16.476C6.0997 16.8969 6.31837 17.254 6.67424 17.6097C7.02985 17.9657 7.38692 18.1849 7.80759 18.3484C8.21479 18.5067 8.68 18.6145 9.3612 18.6457C10.0439 18.6768 10.2619 18.6844 11.9999 18.6844C13.7382 18.6844 13.9557 18.6768 14.6383 18.6457C15.3197 18.6145 15.7853 18.5067 16.1925 18.3484C16.6133 18.1849 16.9698 17.9657 17.3254 17.6097C17.6814 17.254 17.9001 16.8969 18.0641 16.4761C18.2214 16.069 18.3294 15.6038 18.3614 14.9228C18.3921 14.2401 18.4001 14.0225 18.4001 12.2843C18.4001 10.5462 18.3921 10.3281 18.3614 9.64538C18.3294 8.96404 18.2214 8.49897 18.0641 8.09203C17.9001 7.6711 17.6814 7.31403 17.3254 6.95829C16.9694 6.60228 16.6134 6.38362 16.1921 6.22028C15.7841 6.06201 15.3187 5.95414 14.6374 5.92294C13.9547 5.89188 13.7374 5.88428 11.9987 5.88428H12.0007ZM11.4265 7.0376C11.5969 7.03734 11.7871 7.0376 12.0007 7.0376C13.7095 7.0376 13.912 7.04374 14.5868 7.07441C15.2108 7.10294 15.5495 7.20721 15.7751 7.29481C16.0738 7.41081 16.2867 7.54948 16.5106 7.77348C16.7346 7.99748 16.8733 8.21082 16.9895 8.50949C17.0771 8.73482 17.1815 9.07349 17.2099 9.6975C17.2406 10.3722 17.2473 10.5748 17.2473 12.2829C17.2473 13.9909 17.2406 14.1935 17.2099 14.8682C17.1814 15.4922 17.0771 15.8309 16.9895 16.0562C16.8735 16.3549 16.7346 16.5676 16.5106 16.7914C16.2866 17.0154 16.0739 17.1541 15.7751 17.2701C15.5498 17.3581 15.2108 17.4621 14.5868 17.4906C13.9122 17.5213 13.7095 17.528 12.0007 17.528C10.2917 17.528 10.0892 17.5213 9.41451 17.4906C8.7905 17.4618 8.45183 17.3576 8.2261 17.27C7.92743 17.154 7.71409 17.0153 7.49009 16.7913C7.26609 16.5673 7.12742 16.3545 7.01115 16.0557C6.92355 15.8304 6.81915 15.4917 6.79075 14.8677C6.76008 14.193 6.75395 13.9903 6.75395 12.2813C6.75395 10.5722 6.76008 10.3706 6.79075 9.6959C6.81928 9.07189 6.92355 8.73322 7.01115 8.50762C7.12715 8.20895 7.26609 7.99561 7.49009 7.77161C7.71409 7.54761 7.92743 7.40894 8.2261 7.29267C8.4517 7.20467 8.7905 7.10067 9.41451 7.07201C10.0049 7.04534 10.2337 7.03734 11.4265 7.036V7.0376ZM15.417 8.10029C14.993 8.10029 14.649 8.44389 14.649 8.86803C14.649 9.29203 14.993 9.63603 15.417 9.63603C15.841 9.63603 16.185 9.29203 16.185 8.86803C16.185 8.44402 15.841 8.10029 15.417 8.10029ZM12.0007 8.99763C10.1856 8.99763 8.71401 10.4692 8.71401 12.2843C8.71401 14.0994 10.1856 15.5704 12.0007 15.5704C13.8158 15.5704 15.2869 14.0994 15.2869 12.2843C15.2869 10.4692 13.8158 8.99763 12.0007 8.99763ZM12.0007 10.151C13.1788 10.151 14.134 11.106 14.134 12.2843C14.134 13.4625 13.1788 14.4177 12.0007 14.4177C10.8224 14.4177 9.86733 13.4625 9.86733 12.2843C9.86733 11.106 10.8224 10.151 12.0007 10.151Z" fill="white"/>
</svg>
