<svg width="24" height="25" viewBox="0 0 24 25" fill="none" xmlns="http://www.w3.org/2000/svg">
<path opacity="0.1" fill-rule="evenodd" clip-rule="evenodd" d="M0 12.2842C0 5.65676 5.37258 0.28418 12 0.28418C18.6274 0.28418 24 5.65676 24 12.2842C24 18.9116 18.6274 24.2842 12 24.2842C5.37258 24.2842 0 18.9116 0 12.2842Z" fill="white"/>
<path fill-rule="evenodd" clip-rule="evenodd" d="M11.6406 10.0379L11.6658 10.4531L11.2461 10.4023C9.71843 10.2074 8.38383 9.54639 7.25067 8.43629L6.69668 7.88548L6.55399 8.29223C6.25181 9.19895 6.44487 10.1565 7.0744 10.8005C7.41015 11.1565 7.33461 11.2073 6.75544 10.9954C6.55399 10.9277 6.37772 10.8768 6.36093 10.9022C6.30218 10.9615 6.50363 11.7327 6.66311 12.0378C6.88134 12.4615 7.32621 12.8767 7.81305 13.1224L8.22434 13.3173L7.73751 13.3258C7.26746 13.3258 7.25067 13.3343 7.30103 13.5122C7.46891 14.063 8.13201 14.6477 8.87066 14.902L9.39108 15.0799L8.93781 15.3511C8.26631 15.7409 7.4773 15.9612 6.68829 15.9782C6.31057 15.9866 6 16.0205 6 16.046C6 16.1307 7.02404 16.6052 7.61999 16.7917C9.40786 17.3425 11.5315 17.1052 13.1263 16.1646C14.2595 15.4952 15.3926 14.1647 15.9214 12.8767C16.2068 12.1903 16.4922 10.9361 16.4922 10.3345C16.4922 9.94467 16.5174 9.89382 16.9874 9.42775C17.2644 9.15658 17.5246 8.85999 17.575 8.77525C17.6589 8.61425 17.6505 8.61425 17.2224 8.7583C16.509 9.01252 16.4083 8.97863 16.7608 8.5973C17.021 8.32613 17.3316 7.83464 17.3316 7.69058C17.3316 7.66516 17.2057 7.70753 17.063 7.78379C16.9119 7.86853 16.5761 7.99564 16.3243 8.07191L15.8711 8.21597L15.4598 7.93632C15.2331 7.78379 14.9142 7.61431 14.7463 7.56347C14.3182 7.44483 13.6635 7.46178 13.2774 7.59736C12.2282 7.97869 11.5651 8.96168 11.6406 10.0379Z" fill="white"/>
</svg>
