<svg width="24" height="25" viewBox="0 0 24 25" fill="none" xmlns="http://www.w3.org/2000/svg">
<path opacity="0.1" fill-rule="evenodd" clip-rule="evenodd" d="M0 12.2842C0 5.65676 5.37258 0.28418 12 0.28418C18.6274 0.28418 24 5.65676 24 12.2842C24 18.9116 18.6274 24.2842 12 24.2842C5.37258 24.2842 0 18.9116 0 12.2842Z" fill="white"/>
<path fill-rule="evenodd" clip-rule="evenodd" d="M17.0009 8.15894C17.5517 8.31007 17.9854 8.75538 18.1326 9.32089C18.4001 10.3458 18.4001 12.4843 18.4001 12.4843C18.4001 12.4843 18.4001 14.6227 18.1326 15.6477C17.9854 16.2132 17.5517 16.6585 17.0009 16.8097C16.0028 17.0843 12.0001 17.0843 12.0001 17.0843C12.0001 17.0843 7.99741 17.0843 6.99923 16.8097C6.44846 16.6585 6.01472 16.2132 5.86752 15.6477C5.6001 14.6227 5.6001 12.4843 5.6001 12.4843C5.6001 12.4843 5.6001 10.3458 5.86752 9.32089C6.01472 8.75538 6.44846 8.31007 6.99923 8.15894C7.99741 7.88428 12.0001 7.88428 12.0001 7.88428C12.0001 7.88428 16.0028 7.88428 17.0009 8.15894ZM10.8001 10.6842V14.6842L14.0001 12.6843L10.8001 10.6842Z" fill="white"/>
</svg>
